*
*
G04 PADS 9.5 Build Number: 522968 generated Gerber (RS-274-X) file*
G04 PC Version=2.1*
*
%IN "Ge_mega2560_Mainbaord.p"*%
*
%MOIN*%
*
%FSLAX35Y35*%
*
*
*
*
G04 PC Standard Apertures*
*
*
G04 Thermal Relief Aperture macro.*
%AMTER*
1,1,$1,0,0*
1,0,$1-$2,0,0*
21,0,$3,$4,0,0,45*
21,0,$3,$4,0,0,135*
%
*
*
G04 Annular Aperture macro.*
%AMANN*
1,1,$1,0,0*
1,0,$2,0,0*
%
*
*
G04 Odd Aperture macro.*
%AMODD*
1,1,$1,0,0*
1,0,$1-0.005,0,0*
%
*
*
G04 PC Custom Aperture Macros*
*
*
*
*
*
*
G04 PC Aperture Table*
*
%ADD010C,0.001*%
%ADD013C,0.00394*%
%ADD016C,0.00787*%
%ADD026C,0.00591*%
%ADD031C,0.00031*%
*
*
*
*
G04 PC Circuitry*
G04 Layer Name Ge_mega2560_Mainbaord.p - circuitry*
%LPD*%
*
*
G04 PC Custom Flashes*
G04 Layer Name Ge_mega2560_Mainbaord.p - flashes*
%LPD*%
*
*
G04 PC Circuitry*
G04 Layer Name Ge_mega2560_Mainbaord.p - circuitry*
%LPD*%
*
G54D10*
G54D13*
G01X475394Y341473D02*
X475578D01*
X475947Y341607*
X476132Y341741*
X476316Y342010*
Y342547*
X476132Y342815*
X475947Y342949*
X475578Y343083*
X475209*
X474840Y342949*
X474286Y342681*
X472441Y341339*
Y343218*
X476316Y344426D02*
X472441D01*
X476316D02*
Y345634D01*
X476316D02*
X476132Y346036D01*
X475947Y346170*
X475578Y346305*
X475209*
X474840Y346170*
X474656Y346036*
X474471Y345634*
Y344426D02*
Y345634D01*
X474471D02*
X474286Y346036D01*
X474102Y346170*
X473733Y346305*
X473179*
X472810Y346170*
X472625Y346036*
X472441Y345634*
X472441D02*
Y344426D01*
X475394Y351709D02*
X475578D01*
X475947Y351843*
X476132Y351977*
X476316Y352246*
Y352783*
X476132Y353051*
X475947Y353185*
X475578Y353320*
X475209*
X474840Y353185*
X474286Y352917*
X472441Y351575*
Y353454*
X476316Y355736D02*
X472441Y354662D01*
X476316Y355736D02*
X472441Y356809D01*
X473733Y355064D02*
Y356407D01*
X475578Y361811D02*
X475763Y362079D01*
X476316Y362482*
X472441*
X476316Y364764D02*
X472441Y363690D01*
X476316Y364764D02*
X472441Y365838D01*
X473733Y364093D02*
Y365435D01*
X475578Y371654D02*
X475763Y371922D01*
X476316Y372325*
X472441*
X476316Y373533D02*
X472441D01*
X476316D02*
Y374741D01*
X476132Y375143*
X475947Y375277*
X475578Y375412*
X475209*
X474840Y375277*
X474656Y375143*
X474471Y374741*
Y373533D02*
Y374741D01*
X474286Y375143*
X474102Y375277*
X473733Y375412*
X473179*
X472810Y375277*
X472625Y375143*
X472441Y374741*
Y373533*
X227845Y389404D02*
X228095Y389748D01*
X228471Y389920*
X228972*
X229348Y389748*
X229598Y389404*
Y389059*
X229473Y388715*
X229348Y388542*
X229097Y388370*
X228346Y388026*
X228095Y387853*
X227970Y387681*
X227845Y387337*
Y386820*
X228095Y386475*
X228471Y386303*
X228972*
X229348Y386475*
X229598Y386820*
X226717Y389920D02*
Y386303D01*
X223711Y389059D02*
X223836Y389404D01*
X224087Y389748*
X224337Y389920*
X224838*
X225089Y389748*
X225339Y389404*
X225465Y389059*
X225590Y388542*
Y387681*
X225465Y387164*
X225339Y386820*
X225089Y386475*
X224838Y386303*
X224337*
X224087Y386475*
X223836Y386820*
X223711Y387164*
Y387681*
X224337D02*
X223711D01*
X218554Y389059D02*
X218679Y389404D01*
X218930Y389748*
X219180Y389920*
X219681*
X219932Y389748*
X220183Y389404*
X220308Y389059*
X220433Y388542*
Y387681*
X220308Y387164*
X220183Y386820*
X219932Y386475*
X219681Y386303*
X219180*
X218930Y386475*
X218679Y386820*
X218554Y387164*
Y387681*
X219180D02*
X218554D01*
X217427Y389920D02*
Y386303D01*
Y389920D02*
X215673Y386303D01*
Y389920D02*
Y386303D01*
X214545Y389920D02*
Y386303D01*
Y389920D02*
X213669D01*
X213293Y389748*
X213042Y389404*
X212917Y389059*
X212792Y388542*
Y387681*
X212917Y387164*
X213042Y386820*
X213293Y386475*
X213669Y386303*
X214545*
X259360Y389404D02*
X259611Y389748D01*
X259987Y389920*
X260488*
X260864Y389748*
X261114Y389404*
Y389059*
X260989Y388715*
X260864Y388542*
X260613Y388370*
X259861Y388026*
X259611Y387853*
X259486Y387681*
X259360Y387337*
Y386820*
X259611Y386475*
X259987Y386303*
X260488*
X260864Y386475*
X261114Y386820*
X258233Y389920D02*
Y386303D01*
X255227Y389059D02*
X255352Y389404D01*
X255602Y389748*
X255853Y389920*
X256354*
X256605Y389748*
X256855Y389404*
X256980Y389059*
X257106Y388542*
Y387681*
X256980Y387164*
X256855Y386820*
X256605Y386475*
X256354Y386303*
X255853*
X255602Y386475*
X255352Y386820*
X255227Y387164*
Y387681*
X255853D02*
X255227D01*
X249719Y389059D02*
X249845Y389404D01*
X250095Y389748*
X250346Y389920*
X250847*
X251097Y389748*
X251348Y389404*
X251473Y389059*
X251598Y388542*
Y387681*
X251473Y387164*
X251348Y386820*
X251097Y386475*
X250847Y386303*
X250346*
X250095Y386475*
X249845Y386820*
X249719Y387164*
Y387681*
X250346D02*
X249719D01*
X248592Y389920D02*
Y386303D01*
Y389920D02*
X246838Y386303D01*
Y389920D02*
Y386303D01*
X245711Y389920D02*
Y386303D01*
Y389920D02*
X244834D01*
X244458Y389748*
X244208Y389404*
X244082Y389059*
X243957Y388542*
Y387681*
X244082Y387164*
X244208Y386820*
X244458Y386475*
X244834Y386303*
X245711*
X290801Y389404D02*
X291052Y389748D01*
X291428Y389920*
X291929*
X292305Y389748*
X292555Y389404*
Y389059*
X292430Y388715*
X292305Y388542*
X292054Y388370*
X291302Y388026*
X291052Y387853*
X290927Y387681*
X290801Y387337*
Y386820*
X291052Y386475*
X291428Y386303*
X291929*
X292305Y386475*
X292555Y386820*
X289674Y389920D02*
Y386303D01*
X286668Y389059D02*
X286793Y389404D01*
X287043Y389748*
X287294Y389920*
X287795*
X288045Y389748*
X288296Y389404*
X288421Y389059*
X288547Y388542*
Y387681*
X288421Y387164*
X288296Y386820*
X288045Y386475*
X287795Y386303*
X287294*
X287043Y386475*
X286793Y386820*
X286668Y387164*
X286668D02*
Y387681D01*
X287294D02*
X286668D01*
X281338Y389059D02*
X281463Y389404D01*
X281713Y389748*
X281964Y389920*
X282465*
X282715Y389748*
X282966Y389404*
X283091Y389059*
X283217Y388542*
Y387681*
X283091Y387164*
X282966Y386820*
X282715Y386475*
X282465Y386303*
X281964*
X281713Y386475*
X281463Y386820*
X281338Y387164*
Y387681*
X281964D02*
X281338D01*
X280210Y389920D02*
Y386303D01*
Y389920D02*
X278456Y386303D01*
Y389920D02*
Y386303D01*
X277329Y389920D02*
Y386303D01*
Y389920D02*
X276452D01*
X276076Y389748*
X275826Y389404*
X275700Y389059*
X275575Y388542*
Y387681*
X275700Y387164*
X275826Y386820*
X276076Y386475*
X276452Y386303*
X277329*
X475394Y290292D02*
X475578D01*
X475947Y290426*
X476132Y290560*
X476316Y290829*
Y291365*
X476132Y291634*
X475947Y291768*
X475578Y291902*
X475209*
X474840Y291768*
X474286Y291500*
X472441Y290157*
Y292037*
X476316Y293244D02*
X472441D01*
X476316D02*
Y294452D01*
X476132Y294855*
X475947Y294989*
X475578Y295123*
X475209*
X474840Y294989*
X474656Y294855*
X474471Y294452*
Y293244D02*
Y294452D01*
X474286Y294855*
X474102Y294989*
X473733Y295123*
X473179*
X472810Y294989*
X472625Y294855*
X472441Y294452*
Y293244*
X475394Y300528D02*
X475578D01*
X475947Y300662*
X476132Y300796*
X476316Y301065*
Y301602*
X476132Y301870*
X475947Y302004*
X475578Y302139*
X475209*
X474840Y302004*
X474286Y301736*
X472441Y300394*
Y302273*
X476316Y304554D02*
X472441Y303481D01*
X476316Y304554D02*
X472441Y305628D01*
X473733Y303883D02*
Y305225D01*
X475578Y310630D02*
X475763Y310898D01*
X476316Y311301*
X472441*
X476316Y313583D02*
X472441Y312509D01*
X476316Y313583D02*
X472441Y314656D01*
X473733Y312912D02*
Y314254D01*
X475578Y320472D02*
X475763Y320741D01*
X476316Y321144*
X472441*
X476316Y322351D02*
X472441D01*
X476316D02*
Y323559D01*
X476132Y323962*
X475947Y324096*
X475578Y324230*
X475209*
X474840Y324096*
X474656Y323962*
X474471Y323559*
Y322351D02*
Y323559D01*
X474286Y323962*
X474102Y324096*
X473733Y324230*
X473179*
X472810Y324096*
X472625Y323962*
X472441Y323559*
Y322351*
X475394Y239504D02*
X475578D01*
X475947Y239639*
X476132Y239773*
X476316Y240041*
Y240578*
X476132Y240846*
X475947Y240981*
X475578Y241115*
X475209*
X474840Y240981*
X474286Y240712*
X472441Y239370*
Y241249*
X476316Y242457D02*
X472441D01*
X476316D02*
Y243665D01*
X476132Y244068*
X475947Y244202*
X475578Y244336*
X475209*
X474840Y244202*
X474656Y244068*
X474471Y243665*
Y242457D02*
Y243665D01*
X474286Y244068*
X474102Y244202*
X473733Y244336*
X473179*
X472810Y244202*
X472625Y244068*
X472441Y243665*
Y242457*
X475394Y249741D02*
X475578D01*
X475947Y249875*
X476132Y250009*
X476316Y250277*
Y250814*
X476132Y251083*
X475947Y251217*
X475578Y251351*
X475209*
X474840Y251217*
X474286Y250948*
X472441Y249606*
Y251485*
X476316Y253767D02*
X472441Y252693D01*
X476316Y253767D02*
X472441Y254841D01*
X473733Y253096D02*
Y254438D01*
X475578Y259843D02*
X475763Y260111D01*
X476316Y260514*
X472441*
X476316Y262795D02*
X472441Y261722D01*
X476316Y262795D02*
X472441Y263869D01*
X473733Y262124D02*
Y263466D01*
X475578Y269685D02*
X475763Y269953D01*
X476316Y270356*
X472441*
X476316Y271564D02*
X472441D01*
X476316D02*
Y272772D01*
X476132Y273175*
X475947Y273309*
X475578Y273443*
X475209*
X474840Y273309*
X474656Y273175*
X474471Y272772*
Y271564D02*
Y272772D01*
X474286Y273175*
X474102Y273309*
X473733Y273443*
X473179*
X472810Y273309*
X472625Y273175*
X472441Y272772*
Y271564*
X475394Y188717D02*
X475578D01*
X475947Y188851*
X476132Y188985*
X476316Y189254*
Y189791*
X476132Y190059*
X475947Y190193*
X475578Y190327*
X475209*
X474840Y190193*
X474286Y189925*
X472441Y188583*
Y190462*
X476316Y191670D02*
X472441D01*
X476316D02*
Y192878D01*
X476132Y193280*
X475947Y193414*
X475578Y193549*
X475209*
X474840Y193414*
X474656Y193280*
X474471Y192878*
Y191670D02*
Y192878D01*
X474286Y193280*
X474102Y193414*
X473733Y193549*
X473179*
X472810Y193414*
X472625Y193280*
X472441Y192878*
Y191670*
X475394Y198953D02*
X475578D01*
X475947Y199087*
X476132Y199222*
X476316Y199490*
Y200027*
X476132Y200295*
X475947Y200429*
X475578Y200564*
X475209*
X474840Y200429*
X474286Y200161*
X472441Y198819*
Y200698*
X476316Y202980D02*
X472441Y201906D01*
X476316Y202980D02*
X472441Y204053D01*
X473733Y202309D02*
Y203651D01*
X475578Y209055D02*
X475763Y209324D01*
X476316Y209726*
X472441*
X476316Y212008D02*
X472441Y210934D01*
X476316Y212008D02*
X472441Y213082D01*
X473733Y211337D02*
Y212679D01*
X475578Y218504D02*
X475763Y218772D01*
X476316Y219175*
X472441*
X476316Y220383D02*
X472441D01*
X476316D02*
Y221591D01*
X476132Y221994*
X475947Y222128*
X475578Y222262*
X475209*
X474840Y222128*
X474656Y221994*
X474471Y221591*
Y220383D02*
Y221591D01*
X474286Y221994*
X474102Y222128*
X473733Y222262*
X473179*
X472810Y222128*
X472625Y221994*
X472441Y221591*
Y220383*
X475394Y136355D02*
X475578D01*
X475947Y136489*
X476132Y136623*
X476316Y136892*
Y137428*
X476132Y137697*
X475947Y137831*
X475578Y137965*
X475209*
X474840Y137831*
X474286Y137563*
X472441Y136220*
Y138099*
X476316Y139307D02*
X472441D01*
X476316D02*
Y140515D01*
X476132Y140918*
X475947Y141052*
X475578Y141186*
X475209*
X474840Y141052*
X474656Y140918*
X474471Y140515*
Y139307D02*
Y140515D01*
X474286Y140918*
X474102Y141052*
X473733Y141186*
X473179*
X472810Y141052*
X472625Y140918*
X472441Y140515*
Y139307*
X475394Y146591D02*
X475578D01*
X475947Y146725*
X476132Y146859*
X476316Y147128*
Y147665*
X476132Y147933*
X475947Y148067*
X475578Y148202*
X475209*
X474840Y148067*
X474286Y147799*
X472441Y146457*
Y148336*
X476316Y150617D02*
X472441Y149544D01*
X476316Y150617D02*
X472441Y151691D01*
X473733Y149946D02*
Y151288D01*
X475578Y156693D02*
X475763Y156961D01*
X476316Y157364*
X472441*
X476316Y159646D02*
X472441Y158572D01*
X476316Y159646D02*
X472441Y160719D01*
X473733Y158975D02*
Y160317D01*
X475578Y167323D02*
X475763Y167591D01*
X476316Y167994*
X472441*
X476316Y169202D02*
X472441D01*
X476316D02*
Y170410D01*
X476132Y170812*
X475947Y170947*
X475578Y171081*
X475209*
X474840Y170947*
X474656Y170812*
X474471Y170410*
Y169202D02*
Y170410D01*
X474286Y170812*
X474102Y170947*
X473733Y171081*
X473179*
X472810Y170947*
X472625Y170812*
X472441Y170410*
Y169202*
G54D16*
X104967Y288909D02*
X111426D01*
X104967Y285777D02*
X111426D01*
X108042Y288909D02*
Y285777D01*
X104967Y282422D02*
X105274Y282869D01*
X105889Y283317*
X106504Y283540*
X107427Y283764*
X108965*
X109888Y283540*
X110503Y283317*
X111118Y282869*
X111426Y282422*
Y281527*
X111118Y281080*
X110503Y280632*
X109888Y280409*
X108965Y280185*
X107427*
X106504Y280409*
X105889Y280632*
X105274Y281080*
X104967Y281527*
Y282422*
Y276606D02*
X111426D01*
X104967Y278172D02*
Y275040D01*
X112656Y273027D02*
Y268329D01*
X104967Y266987D02*
X111426D01*
X104967D02*
Y264974D01*
X105274Y264303*
X105582Y264079*
X106197Y263855*
X106812*
X107427Y264079*
X107735Y264303*
X108042Y264974*
Y266987D02*
Y264974D01*
X108350Y264303*
X108657Y264079*
X109273Y263855*
X110195*
X110811Y264079*
X111118Y264303*
X111426Y264974*
Y266987*
X104967Y261842D02*
X111426D01*
X104967D02*
Y258934D01*
X108042Y261842D02*
Y260052D01*
X111426Y261842D02*
Y258934D01*
X104967Y256921D02*
X111426D01*
X104967D02*
Y255355D01*
X105274Y254684*
X105889Y254236*
X106504Y254013*
X107427Y253789*
X108965*
X109888Y254013*
X110503Y254236*
X111118Y254684*
X111426Y255355*
Y256921*
X105522Y367815D02*
X111981D01*
X105522Y364684D02*
X111981D01*
X108597Y367815D02*
Y364684D01*
X105522Y362671D02*
X111981D01*
X105522D02*
Y359763D01*
X108597Y362671D02*
Y360881D01*
X111981Y362671D02*
Y359763D01*
X105522Y355960D02*
X111981Y357749D01*
X105522Y355960D02*
X111981Y354170D01*
X109828Y357078D02*
Y354841D01*
X105522Y350591D02*
X111981D01*
X105522Y352157D02*
Y349025D01*
Y347012D02*
X111981D01*
X105522D02*
Y344104D01*
X108597Y347012D02*
Y345222D01*
X111981Y347012D02*
Y344104D01*
X105522Y342091D02*
X111981D01*
X105522D02*
Y340077D01*
X105829Y339406*
X106137Y339183*
X106752Y338959*
X107367*
X107982Y339183*
X108290Y339406*
X108597Y340077*
Y342091*
Y340525D02*
X111981Y338959D01*
X106752Y336946D02*
X106444Y336498D01*
X105522Y335827*
X111981*
X105159Y328645D02*
X111619D01*
X105159Y325513D02*
X111619D01*
X108235Y328645D02*
Y325513D01*
X105159Y323500D02*
X111619D01*
X105159D02*
Y320592D01*
X108235Y323500D02*
Y321710D01*
X111619Y323500D02*
Y320592D01*
X105159Y316789D02*
X111619Y318579D01*
X105159Y316789D02*
X111619Y315000D01*
X109466Y317908D02*
Y315671D01*
X105159Y311421D02*
X111619D01*
X105159Y312986D02*
Y309855D01*
Y307841D02*
X111619D01*
X105159D02*
Y304933D01*
X108235Y307841D02*
Y306052D01*
X111619Y307841D02*
Y304933D01*
X105159Y302920D02*
X111619D01*
X105159D02*
Y300907D01*
X105467Y300236*
X105775Y300012*
X106390Y299788*
X107005*
X107620Y300012*
X107928Y300236*
X108235Y300907*
Y302920*
Y301354D02*
X111619Y299788D01*
X106697Y297552D02*
X106390D01*
X105775Y297328*
X105467Y297104*
X105159Y296657*
Y295762*
X105467Y295315*
X105775Y295091*
X106390Y294867*
X107005*
X107620Y295091*
X108543Y295538*
X111619Y297775*
Y294644*
X497367Y197244D02*
X488583D01*
X497367D02*
Y201199D01*
X493184Y197244D02*
Y199678D01*
X488583Y197244D02*
Y201199D01*
X497367Y203937D02*
X488583Y208196D01*
X497367D02*
X488583Y203937D01*
X497367Y213064D02*
X488583D01*
X497367Y210934D02*
Y215193D01*
Y154796D02*
X488583Y152362D01*
X497367Y154796D02*
X488583Y157230D01*
X491511Y153275D02*
Y156317D01*
X487279Y362205D02*
X496063Y357946D01*
X487279D02*
X496063Y362205D01*
X495773Y305512D02*
X491786Y307831D01*
X487402*
X495773Y310150D02*
X491786Y307831D01*
X496973Y258590D02*
X488189Y254331D01*
X496973D02*
Y258590D01*
X488189Y254331D02*
Y258590D01*
X141072Y136436D02*
Y141972D01*
X139059Y139204D02*
X143086D01*
X120740Y153185D02*
Y157212D01*
X140746Y152294D02*
Y157831D01*
X138732Y155062D02*
X142759D01*
X120740Y136484D02*
Y140511D01*
X100832Y125161D02*
X107291D01*
X100832D02*
Y123596D01*
X101140Y122924*
X101755Y122477*
X102370Y122253*
X103293Y122030*
X104831*
X105753Y122253*
X106369Y122477*
X106984Y122924*
X107291Y123596*
Y125161*
X102370Y116661D02*
X101755Y116885D01*
X101140Y117332*
X100832Y117780*
Y118674*
X101140Y119122*
X101755Y119569*
X102370Y119793*
X103293Y120016*
X104831*
X105753Y119793*
X106369Y119569*
X106984Y119122*
X107291Y118674*
Y117780*
X106984Y117332*
X106369Y116885*
X105753Y116661*
X100832Y109503D02*
X107291D01*
X100832Y107490D02*
X107291D01*
X100832D02*
X107291Y104358D01*
X100832D02*
X107291D01*
X104564Y202756D02*
X109178D01*
X110101Y202532*
X110716Y202085*
X111024Y201414*
Y200966*
X110716Y200295*
X110101Y199848*
X109178Y199624*
X104564*
X105487Y194479D02*
X104872Y194927D01*
X104564Y195598*
Y196492*
X104872Y197164*
X105487Y197611*
X106102*
X106718Y197387*
X107025Y197164*
X107333Y196716*
X107948Y195374*
X108255Y194927*
X108563Y194703*
X109178Y194479*
X110101*
X110716Y194927*
X111024Y195598*
Y196492*
X110716Y197164*
X110101Y197611*
X104564Y192466D02*
X111024D01*
X104564D02*
Y190453D01*
X104872Y189782*
X105180Y189558*
X105795Y189334*
X106410*
X107025Y189558*
X107333Y189782*
X107640Y190453*
Y192466D02*
Y190453D01*
X107948Y189782*
X108255Y189558*
X108871Y189334*
X109793*
X110408Y189558*
X110716Y189782*
X111024Y190453*
Y192466*
G54D26*
X296178Y405898D02*
Y400730D01*
X297431Y405898D02*
X294925D01*
X293315D02*
Y400730D01*
Y405898D02*
X290988D01*
X293315Y403437D02*
X291883D01*
X293315Y400730D02*
X290988D01*
X289378Y405898D02*
Y400730D01*
Y405898D02*
X287946Y400730D01*
X286514Y405898D02*
X287946Y400730D01*
X286514Y405898D02*
Y400730D01*
X284904Y405898D02*
Y400730D01*
Y405898D02*
X283293D01*
X282756Y405652*
X282577Y405406*
X282398Y404913*
Y404175*
X282577Y403683*
X282756Y403437*
X283293Y403191*
X284904*
X280788Y399746D02*
X277030D01*
X275598Y405898D02*
X273630D01*
X274703Y403929*
X274166*
X273809Y403683*
X273630Y403437*
X273451Y402699*
Y402207*
X273630Y401469*
X273987Y400976*
X274524Y400730*
X275061*
X275598Y400976*
X275777Y401222*
X275956Y401715*
X232798Y405898D02*
Y400730D01*
X234050Y405898D02*
X231545D01*
X229935D02*
Y400730D01*
Y405898D02*
X227608D01*
X229935Y403437D02*
X228503D01*
X229935Y400730D02*
X227608D01*
X225997Y405898D02*
Y400730D01*
Y405898D02*
X224566Y400730D01*
X223134Y405898D02*
X224566Y400730D01*
X223134Y405898D02*
Y400730D01*
X221524Y405898D02*
Y400730D01*
Y405898D02*
X219913D01*
X219376Y405652*
X219197Y405406*
X219018Y404913*
Y404175*
X219197Y403683*
X219376Y403437*
X219913Y403191*
X221524*
X217408Y399746D02*
X213650D01*
X212576Y404913D02*
X212218Y405159D01*
X211681Y405898*
Y400730*
X264123Y405898D02*
Y400730D01*
X265375Y405898D02*
X262870D01*
X261259D02*
Y400730D01*
Y405898D02*
X258933D01*
X261259Y403437D02*
X259828D01*
X261259Y400730D02*
X258933D01*
X257322Y405898D02*
Y400730D01*
Y405898D02*
X255891Y400730D01*
X254459Y405898D02*
X255891Y400730D01*
X254459Y405898D02*
Y400730D01*
X252849Y405898D02*
Y400730D01*
Y405898D02*
X251238D01*
X250701Y405652*
X250522Y405406*
X250343Y404913*
Y404175*
X250522Y403683*
X250701Y403437*
X251238Y403191*
X252849*
X248733Y399746D02*
X244975D01*
X243722Y404667D02*
Y404913D01*
X243543Y405406*
X243364Y405652*
X243006Y405898*
X242290*
X241932Y405652*
X241753Y405406*
X241574Y404913*
Y404421*
X241753Y403929*
X242111Y403191*
X243901Y400730*
X241395*
G54D31*
X100009Y409997D02*
Y99997D01*
X522602*
Y409997*
X100009*
X485626Y114331D02*
G75*
G03X485626I-6299J0D01*
G01X119894Y396571D02*
G03X119894I-6300J0D01*
G01X485626D02*
G03X485626I-6299J0D01*
G01X119894Y114331D02*
G03X119894I-6300J0D01*
G74*
G01X0Y0D02*
M02*
