*
*
G04 PADS 9.5 Build Number: 522968 generated Gerber (RS-274-X) file*
G04 PC Version=2.1*
*
%IN "Ge_mega2560_Mainbaord.p"*%
*
%MOIN*%
*
%FSLAX35Y35*%
*
*
*
*
G04 PC Standard Apertures*
*
*
G04 Thermal Relief Aperture macro.*
%AMTER*
1,1,$1,0,0*
1,0,$1-$2,0,0*
21,0,$3,$4,0,0,45*
21,0,$3,$4,0,0,135*
%
*
*
G04 Annular Aperture macro.*
%AMANN*
1,1,$1,0,0*
1,0,$2,0,0*
%
*
*
G04 Odd Aperture macro.*
%AMODD*
1,1,$1,0,0*
1,0,$1-0.005,0,0*
%
*
*
G04 PC Custom Aperture Macros*
*
*
*
*
*
*
G04 PC Aperture Table*
*
%ADD010C,0.001*%
%ADD031C,0.00031*%
%ADD047R,0.05906X0.01378*%
%ADD048R,0.01378X0.05906*%
%ADD049R,0.04331X0.03537*%
%ADD050R,0.03537X0.04331*%
%ADD051R,0.03543X0.08268*%
%ADD052R,0.12598X0.08268*%
%ADD053R,0.08661X0.04331*%
%ADD057R,0.03X0.03*%
%ADD058R,0.04331X0.03937*%
%ADD062R,0.11811X0.20866*%
%ADD063R,0.11024X0.03937*%
%ADD064R,0.09055X0.09055*%
%ADD065R,0.06X0.05*%
%ADD066R,0.01181X0.03543*%
%ADD067R,0.03543X0.01181*%
%ADD068R,0.12598X0.12598*%
%ADD069R,0.03937X0.04331*%
%ADD070R,0.06X0.06*%
%ADD071R,0.036X0.036*%
%ADD072R,0.05X0.036*%
%ADD073R,0.03937X0.08661*%
%ADD074R,0.11024X0.12598*%
%ADD075R,0.03937X0.06299*%
%ADD076R,0.2126X0.24409*%
%ADD077R,0.06299X0.05512*%
%ADD078R,0.036X0.05*%
%ADD079R,0.08661X0.02362*%
%ADD080R,0.05X0.06*%
%ADD081O,0.024X0.08*%
*
*
*
*
G04 PC Circuitry*
G04 Layer Name Ge_mega2560_Mainbaord.p - circuitry*
%LPD*%
*
*
G04 PC Custom Flashes*
G04 Layer Name Ge_mega2560_Mainbaord.p - flashes*
%LPD*%
*
*
G04 PC Circuitry*
G04 Layer Name Ge_mega2560_Mainbaord.p - circuitry*
%LPD*%
*
G54D10*
G54D31*
G01X100009Y409997D02*
Y99997D01*
X522602*
Y409997*
X100009*
X485626Y114331D02*
G75*
G03X485626I-6299J0D01*
G01X119894Y396571D02*
G03X119894I-6300J0D01*
G01X485626D02*
G03X485626I-6299J0D01*
G01X119894Y114331D02*
G03X119894I-6300J0D01*
G54D47*
G01X258004Y289173D03*
Y287205D03*
Y285236D03*
Y283268D03*
Y281299D03*
Y279331D03*
Y277362D03*
Y275394D03*
Y273425D03*
Y271457D03*
Y269488D03*
Y267520D03*
Y265551D03*
Y263583D03*
Y261614D03*
Y259646D03*
Y257677D03*
Y255709D03*
Y253740D03*
Y251772D03*
Y249803D03*
Y247835D03*
Y245866D03*
Y243897D03*
Y241929D03*
X320996D03*
Y243897D03*
Y245866D03*
Y247835D03*
Y249803D03*
Y251772D03*
Y253740D03*
Y255709D03*
Y257677D03*
Y259646D03*
Y261614D03*
Y263583D03*
Y265551D03*
Y267520D03*
Y269488D03*
Y271457D03*
Y273425D03*
Y275394D03*
Y277362D03*
Y279331D03*
Y281299D03*
Y283268D03*
Y285236D03*
Y287205D03*
Y289173D03*
G54D48*
X265878Y234055D03*
X267846D03*
X269815D03*
X271783D03*
X273752D03*
X275720D03*
X277689D03*
X279657D03*
X281626D03*
X283594D03*
X285563D03*
X287531D03*
X289500D03*
X291468D03*
X293437D03*
X295405D03*
X297374D03*
X299342D03*
X301311D03*
X303279D03*
X305248D03*
X307216D03*
X309185D03*
X311153D03*
X313122D03*
Y297047D03*
X311153D03*
X309185D03*
X307216D03*
X305248D03*
X303279D03*
X301311D03*
X299342D03*
X297374D03*
X295405D03*
X293437D03*
X291468D03*
X289500D03*
X287531D03*
X285563D03*
X283594D03*
X281626D03*
X279657D03*
X277689D03*
X275720D03*
X273752D03*
X271783D03*
X269815D03*
X267846D03*
X265878D03*
G54D49*
X379071Y211169D03*
Y204169D03*
X299110Y216657D03*
Y209657D03*
X379071Y381524D03*
Y388524D03*
Y123697D03*
Y130697D03*
Y260091D03*
Y253091D03*
Y316429D03*
Y309429D03*
X264108Y175982D03*
Y168982D03*
X104461Y348343D03*
Y341343D03*
X104295Y268303D03*
Y261303D03*
X269827Y310252D03*
Y317252D03*
X239738Y175904D03*
Y168904D03*
X220441Y190906D03*
Y197906D03*
X247769Y176061D03*
Y169061D03*
X305272Y310252D03*
Y317252D03*
X283063Y209657D03*
Y216657D03*
X307398D03*
Y209657D03*
X272297Y175982D03*
Y168982D03*
X291125Y209657D03*
Y216657D03*
X130913Y116992D03*
Y123992D03*
X355453Y185626D03*
Y192626D03*
X334370Y209921D03*
Y216921D03*
X326280Y209921D03*
Y216921D03*
X280815Y176240D03*
Y169240D03*
X264381Y155175D03*
Y148175D03*
X266311Y216657D03*
Y209657D03*
X274543Y216657D03*
Y209657D03*
X308524Y160677D03*
Y153677D03*
X104575Y308315D03*
Y301315D03*
X212193Y197906D03*
Y190906D03*
X203945Y197969D03*
Y190969D03*
X138941Y124004D03*
Y117004D03*
X255998Y169140D03*
Y176140D03*
G54D50*
X429724Y244094D03*
X436724D03*
X429724Y305118D03*
X436724D03*
X429724Y365980D03*
X436724D03*
X429724Y183858D03*
X436724D03*
X233839Y375311D03*
X226839D03*
X250972Y378799D03*
X243972D03*
X122425Y233945D03*
X129425D03*
X154799Y246520D03*
X147799D03*
X270539Y378799D03*
X263539D03*
X364839Y309016D03*
X357839D03*
X364776Y317323D03*
X357776D03*
X134472Y233945D03*
X141472D03*
X245598Y271370D03*
X238598D03*
X155942Y291656D03*
X148942D03*
X155509Y337652D03*
X148509D03*
X321406Y368579D03*
X314406D03*
X181413Y171815D03*
X174413D03*
X152969Y237205D03*
X159969D03*
X326583Y368618D03*
X333583D03*
X289555Y378799D03*
X282555D03*
X233839Y367358D03*
X226839D03*
X429724Y122047D03*
X436724D03*
X194684Y161544D03*
X201684D03*
X159970Y228663D03*
X152970D03*
G54D51*
X371280Y172598D03*
X362224D03*
X353169D03*
G54D52*
X362224Y150158D03*
G54D53*
X388094Y370965D03*
X421402D03*
X388094Y380965D03*
X421402D03*
X388094Y390965D03*
X421402D03*
X388094Y127630D03*
X421402D03*
X388094Y137630D03*
X421402D03*
X388094Y147630D03*
X421402D03*
X388094Y188799D03*
X421402D03*
X388094Y198799D03*
X421402D03*
X388094Y208799D03*
X421402D03*
X388094Y248626D03*
X421402D03*
X388094Y258626D03*
X421402D03*
X388094Y268626D03*
X421402D03*
X388094Y309457D03*
X421402D03*
X388094Y319457D03*
X421402D03*
X388094Y329457D03*
X421402D03*
G54D57*
X166354Y177307D03*
Y182807D03*
X104449Y355839D03*
Y361339D03*
X216579Y227055D03*
X222079D03*
X222098Y234146D03*
X216598D03*
X178626Y215394D03*
X173126D03*
X104583Y315807D03*
Y321307D03*
X104295Y275657D03*
Y281157D03*
X130966Y110689D03*
Y105189D03*
X138941Y110594D03*
Y105094D03*
X174988Y189811D03*
X180488D03*
X196201Y199610D03*
Y205110D03*
X235083Y207165D03*
X229583D03*
X217122Y206890D03*
X222622D03*
X217071Y213850D03*
X222571D03*
X235083Y213925D03*
X229583D03*
X258646Y210689D03*
Y216189D03*
X189457Y199610D03*
Y205110D03*
X236469Y292453D03*
X241969D03*
X241996Y285437D03*
X236496D03*
G54D58*
X181260Y180610D03*
X174567D03*
G54D62*
X152807Y151102D03*
X181941D03*
X152965Y127953D03*
X182098D03*
G54D63*
X194894Y143386D03*
X214579D03*
X456138Y203543D03*
X436453D03*
X456138Y384020D03*
X436453D03*
X456138Y263386D03*
X436453D03*
X456138Y324409D03*
X436453D03*
X318780Y164756D03*
X338465D03*
X456138Y141732D03*
X436453D03*
X243994Y116973D03*
X263680D03*
X195209Y116024D03*
X214894D03*
G54D64*
X150830Y107631D03*
X168547D03*
X227098Y165236D03*
Y147520D03*
X296050Y157094D03*
X278334D03*
X227846Y107677D03*
Y125394D03*
X151744Y369803D03*
Y352087D03*
X152413Y323976D03*
Y306260D03*
X151902Y277165D03*
Y259449D03*
G54D65*
X291701Y368480D03*
X282701D03*
X251543Y368283D03*
X242543D03*
X271543Y368362D03*
X262543D03*
G54D66*
X203721Y235240D03*
X201752D03*
X199784D03*
X197815D03*
X195847D03*
X193878D03*
X191910D03*
X189941D03*
Y214768D03*
X191910D03*
X193878D03*
X195847D03*
X197815D03*
X199784D03*
X201752D03*
X203721D03*
G54D67*
X186595Y231894D03*
Y229925D03*
Y227957D03*
Y225988D03*
Y224020D03*
Y222051D03*
Y220083D03*
Y218114D03*
X207067D03*
Y220083D03*
Y222051D03*
Y224020D03*
Y225988D03*
Y227957D03*
Y229925D03*
Y231894D03*
G54D68*
X196831Y225004D03*
G54D69*
X184906Y110693D03*
Y104000D03*
G54D70*
X335598Y107469D03*
X349098D03*
X303583Y171618D03*
X290083D03*
G54D71*
X342394Y217224D03*
Y209724D03*
X181484Y204416D03*
X173984D03*
G54D72*
X350394Y213424D03*
G54D73*
X367866Y185201D03*
Y197799D03*
X341500Y183673D03*
Y196272D03*
G54D74*
X278358Y125197D03*
X322059D03*
G54D75*
X333333Y107476D03*
X351285D03*
G54D76*
X342309Y136216D03*
G54D77*
X311536Y406225D03*
X344606D03*
X311536Y388508D03*
X344606D03*
X311536Y397366D03*
G54D78*
X177684Y196416D03*
G54D79*
X211627Y168248D03*
Y173248D03*
Y178248D03*
Y183248D03*
X191154D03*
Y178248D03*
Y173248D03*
Y168248D03*
G54D80*
X165602Y191768D03*
Y200768D03*
G54D81*
X240420Y135452D03*
X245420D03*
X250420D03*
X255420D03*
Y157452D03*
X250420D03*
X245420D03*
X240420D03*
G74*
X0Y0D02*
M02*
