*
*
G04 PADS 9.5 Build Number: 522968 generated Gerber (RS-274-X) file*
G04 PC Version=2.1*
*
%IN "Ge_mega2560_Mainbaord.p"*%
*
%MOIN*%
*
%FSLAX35Y35*%
*
*
*
*
G04 PC Standard Apertures*
*
*
G04 Thermal Relief Aperture macro.*
%AMTER*
1,1,$1,0,0*
1,0,$1-$2,0,0*
21,0,$3,$4,0,0,45*
21,0,$3,$4,0,0,135*
%
*
*
G04 Annular Aperture macro.*
%AMANN*
1,1,$1,0,0*
1,0,$2,0,0*
%
*
*
G04 Odd Aperture macro.*
%AMODD*
1,1,$1,0,0*
1,0,$1-0.005,0,0*
%
*
*
G04 PC Custom Aperture Macros*
*
*
*
*
*
*
G04 PC Aperture Table*
*
%ADD010C,0.001*%
%ADD012C,0.01*%
%ADD031C,0.00031*%
%ADD047R,0.05906X0.01378*%
%ADD048R,0.01378X0.05906*%
%ADD049R,0.04331X0.03537*%
%ADD050R,0.03537X0.04331*%
%ADD051R,0.03543X0.08268*%
%ADD052R,0.12598X0.08268*%
%ADD053R,0.08661X0.04331*%
%ADD054R,0.05512X0.05512*%
%ADD055C,0.05512*%
%ADD056C,0.0515*%
%ADD057R,0.03X0.03*%
%ADD058R,0.04331X0.03937*%
%ADD059C,0.07087*%
%ADD060C,0.1*%
%ADD061C,0.12661*%
%ADD062R,0.11811X0.20866*%
%ADD063R,0.11024X0.03937*%
%ADD064R,0.09055X0.09055*%
%ADD065R,0.06X0.05*%
%ADD066R,0.01181X0.03543*%
%ADD067R,0.03543X0.01181*%
%ADD068R,0.12598X0.12598*%
%ADD069R,0.03937X0.04331*%
%ADD070R,0.06X0.06*%
%ADD071R,0.036X0.036*%
%ADD072R,0.05X0.036*%
%ADD073R,0.03937X0.08661*%
%ADD074R,0.11024X0.12598*%
%ADD075R,0.03937X0.06299*%
%ADD076R,0.2126X0.24409*%
%ADD077R,0.06299X0.05512*%
%ADD078R,0.036X0.05*%
%ADD079R,0.08661X0.02362*%
%ADD080R,0.05X0.06*%
%ADD081O,0.024X0.08*%
%ADD082R,0.12992X0.12992*%
%ADD083C,0.12992*%
*
*
*
*
G04 PC Circuitry*
G04 Layer Name Ge_mega2560_Mainbaord.p - circuitry*
%LPD*%
*
*
G04 PC Custom Flashes*
G04 Layer Name Ge_mega2560_Mainbaord.p - flashes*
%LPD*%
*
*
G04 PC Circuitry*
G04 Layer Name Ge_mega2560_Mainbaord.p - circuitry*
%LPD*%
*
G54D10*
G54D12*
G01X360031Y347565D02*
Y350151D01*
X361239Y351358*
X363824*
X365031Y350151*
Y347565*
X363824Y346358*
X361239*
X360031Y347565*
X360597Y347000D02*
X364466D01*
X360031Y348000D02*
X365031D01*
X360031Y349000D02*
X365031D01*
X360031Y350000D02*
X365031D01*
X360880Y351000D02*
X364183D01*
X361000Y346597D02*
Y351120D01*
X362000Y346358D02*
Y351358D01*
X363000Y346358D02*
Y351358D01*
X364000Y346534D02*
Y351183D01*
X365000Y347534D02*
Y350183D01*
X360031Y337565D02*
Y340151D01*
X361239Y341358*
X363824*
X365031Y340151*
Y337565*
X363824Y336358*
X361239*
X360031Y337565*
X360597Y337000D02*
X364466D01*
X360031Y338000D02*
X365031D01*
X360031Y339000D02*
X365031D01*
X360031Y340000D02*
X365031D01*
X360880Y341000D02*
X364183D01*
X361000Y336597D02*
Y341120D01*
X362000Y336358D02*
Y341358D01*
X363000Y336358D02*
Y341358D01*
X364000Y336534D02*
Y341183D01*
X365000Y337534D02*
Y340183D01*
X350031Y347565D02*
Y350151D01*
X351239Y351358*
X353824*
X355031Y350151*
Y347565*
X353824Y346358*
X351239*
X350031Y347565*
X350597Y347000D02*
X354466D01*
X350031Y348000D02*
X355031D01*
X350031Y349000D02*
X355031D01*
X350031Y350000D02*
X355031D01*
X350880Y351000D02*
X354183D01*
X351000Y346597D02*
Y351120D01*
X352000Y346358D02*
Y351358D01*
X353000Y346358D02*
Y351358D01*
X354000Y346534D02*
Y351183D01*
X355000Y347534D02*
Y350183D01*
X350031Y337565D02*
Y340151D01*
X351239Y341358*
X353824*
X355031Y340151*
Y337565*
X353824Y336358*
X351239*
X350031Y337565*
X350597Y337000D02*
X354466D01*
X350031Y338000D02*
X355031D01*
X350031Y339000D02*
X355031D01*
X350031Y340000D02*
X355031D01*
X350880Y341000D02*
X354183D01*
X351000Y336597D02*
Y341120D01*
X352000Y336358D02*
Y341358D01*
X353000Y336358D02*
Y341358D01*
X354000Y336534D02*
Y341183D01*
X355000Y337534D02*
Y340183D01*
X340031Y347565D02*
Y350151D01*
X341239Y351358*
X343824*
X345031Y350151*
Y347565*
X343824Y346358*
X341239*
X340031Y347565*
X340597Y347000D02*
X344466D01*
X340031Y348000D02*
X345031D01*
X340031Y349000D02*
X345031D01*
X340031Y350000D02*
X345031D01*
X340880Y351000D02*
X344183D01*
X341000Y346597D02*
Y351120D01*
X342000Y346358D02*
Y351358D01*
X343000Y346358D02*
Y351358D01*
X344000Y346534D02*
Y351183D01*
X345000Y347534D02*
Y350183D01*
X340031Y337565D02*
Y340151D01*
X341239Y341358*
X343824*
X345031Y340151*
Y337565*
X343824Y336358*
X341239*
X340031Y337565*
X340597Y337000D02*
X344466D01*
X340031Y338000D02*
X345031D01*
X340031Y339000D02*
X345031D01*
X340031Y340000D02*
X345031D01*
X340880Y341000D02*
X344183D01*
X341000Y336597D02*
Y341120D01*
X342000Y336358D02*
Y341358D01*
X343000Y336358D02*
Y341358D01*
X344000Y336534D02*
Y341183D01*
X345000Y337534D02*
Y340183D01*
X330031Y347565D02*
Y350151D01*
X331239Y351358*
X333824*
X335031Y350151*
Y347565*
X333824Y346358*
X331239*
X330031Y347565*
X330597Y347000D02*
X334466D01*
X330031Y348000D02*
X335031D01*
X330031Y349000D02*
X335031D01*
X330031Y350000D02*
X335031D01*
X330880Y351000D02*
X334183D01*
X331000Y346597D02*
Y351120D01*
X332000Y346358D02*
Y351358D01*
X333000Y346358D02*
Y351358D01*
X334000Y346534D02*
Y351183D01*
X335000Y347534D02*
Y350183D01*
X330031Y337565D02*
Y340151D01*
X331239Y341358*
X333824*
X335031Y340151*
Y337565*
X333824Y336358*
X331239*
X330031Y337565*
X330597Y337000D02*
X334466D01*
X330031Y338000D02*
X335031D01*
X330031Y339000D02*
X335031D01*
X330031Y340000D02*
X335031D01*
X330880Y341000D02*
X334183D01*
X331000Y336597D02*
Y341120D01*
X332000Y336358D02*
Y341358D01*
X333000Y336358D02*
Y341358D01*
X334000Y336534D02*
Y341183D01*
X335000Y337534D02*
Y340183D01*
X320031Y347565D02*
Y350151D01*
X321239Y351358*
X323824*
X325031Y350151*
Y347565*
X323824Y346358*
X321239*
X320031Y347565*
X320597Y347000D02*
X324466D01*
X320031Y348000D02*
X325031D01*
X320031Y349000D02*
X325031D01*
X320031Y350000D02*
X325031D01*
X320880Y351000D02*
X324183D01*
X321000Y346597D02*
Y351120D01*
X322000Y346358D02*
Y351358D01*
X323000Y346358D02*
Y351358D01*
X324000Y346534D02*
Y351183D01*
X325000Y347534D02*
Y350183D01*
X320031Y337565D02*
Y340151D01*
X321239Y341358*
X323824*
X325031Y340151*
Y337565*
X323824Y336358*
X321239*
X320031Y337565*
X320597Y337000D02*
X324466D01*
X320031Y338000D02*
X325031D01*
X320031Y339000D02*
X325031D01*
X320031Y340000D02*
X325031D01*
X320880Y341000D02*
X324183D01*
X321000Y336597D02*
Y341120D01*
X322000Y336358D02*
Y341358D01*
X323000Y336358D02*
Y341358D01*
X324000Y336534D02*
Y341183D01*
X325000Y337534D02*
Y340183D01*
X136069Y264955D02*
Y257683D01*
X134299Y255913*
X122339*
X122339D02*
X120569Y257683D01*
Y264955*
X122339Y266724*
X122339D02*
X134299D01*
X136069Y264955*
X122252Y256000D02*
X134386D01*
X121252Y257000D02*
X135386D01*
X120569Y258000D02*
X136069D01*
X120569Y259000D02*
X136069D01*
X120569Y260000D02*
X136069D01*
X120569Y261000D02*
X136069D01*
X120569Y262000D02*
X136069D01*
X120569Y263000D02*
X136069D01*
X120569Y264000D02*
X136069D01*
X120614Y265000D02*
X136024D01*
X121614Y266000D02*
X135024D01*
X121000Y257252D02*
Y265386D01*
X122000Y256252D02*
Y266386D01*
X123000Y255913D02*
Y266724D01*
X124000Y255913D02*
Y266724D01*
X125000Y255913D02*
Y266724D01*
X126000Y255913D02*
Y266724D01*
X127000Y255913D02*
Y266724D01*
X128000Y255913D02*
Y266724D01*
X129000Y255913D02*
Y266724D01*
X130000Y255913D02*
Y266724D01*
X131000Y255913D02*
Y266724D01*
X132000Y255913D02*
Y266724D01*
X133000Y255913D02*
Y266724D01*
X134000Y255913D02*
Y266724D01*
X135000Y256614D02*
Y266024D01*
X136000Y257614D02*
Y265024D01*
X136069Y284955D02*
Y277683D01*
X134299Y275913*
X122339*
X122339D02*
X120569Y277683D01*
Y284955*
X122339Y286724*
X122339D02*
X134299D01*
X136069Y284955*
X122252Y276000D02*
X134386D01*
X121252Y277000D02*
X135386D01*
X120569Y278000D02*
X136069D01*
X120569Y279000D02*
X136069D01*
X120569Y280000D02*
X136069D01*
X120569Y281000D02*
X136069D01*
X120569Y282000D02*
X136069D01*
X120569Y283000D02*
X136069D01*
X120569Y284000D02*
X136069D01*
X120614Y285000D02*
X136024D01*
X121614Y286000D02*
X135024D01*
X121000Y277252D02*
Y285386D01*
X122000Y276252D02*
Y286386D01*
X123000Y275913D02*
Y286724D01*
X124000Y275913D02*
Y286724D01*
X125000Y275913D02*
Y286724D01*
X126000Y275913D02*
Y286724D01*
X127000Y275913D02*
Y286724D01*
X128000Y275913D02*
Y286724D01*
X129000Y275913D02*
Y286724D01*
X130000Y275913D02*
Y286724D01*
X131000Y275913D02*
Y286724D01*
X132000Y275913D02*
Y286724D01*
X133000Y275913D02*
Y286724D01*
X134000Y275913D02*
Y286724D01*
X135000Y276614D02*
Y286024D01*
X136000Y277614D02*
Y285024D01*
X136069Y344974D02*
Y337703D01*
X134299Y335933*
X122339*
X122339D02*
X120569Y337703D01*
Y344974*
X122339Y346744*
X122339D02*
X134299D01*
X136069Y344974*
X122272Y336000D02*
X134366D01*
X121272Y337000D02*
X135366D01*
X120569Y338000D02*
X136069D01*
X120569Y339000D02*
X136069D01*
X120569Y340000D02*
X136069D01*
X120569Y341000D02*
X136069D01*
X120569Y342000D02*
X136069D01*
X120569Y343000D02*
X136069D01*
X120569Y344000D02*
X136069D01*
X120594Y345000D02*
X136043D01*
X121594Y346000D02*
X135043D01*
X121000Y337272D02*
Y345406D01*
X122000Y336272D02*
Y346406D01*
X123000Y335933D02*
Y346744D01*
X124000Y335933D02*
Y346744D01*
X125000Y335933D02*
Y346744D01*
X126000Y335933D02*
Y346744D01*
X127000Y335933D02*
Y346744D01*
X128000Y335933D02*
Y346744D01*
X129000Y335933D02*
Y346744D01*
X130000Y335933D02*
Y346744D01*
X131000Y335933D02*
Y346744D01*
X132000Y335933D02*
Y346744D01*
X133000Y335933D02*
Y346744D01*
X134000Y335933D02*
Y346744D01*
X135000Y336634D02*
Y346043D01*
X136000Y337634D02*
Y345043D01*
X136069Y364974D02*
Y357703D01*
X134299Y355933*
X122339*
X122339D02*
X120569Y357703D01*
Y364974*
X122339Y366744*
X122339D02*
X134299D01*
X136069Y364974*
X122272Y356000D02*
X134366D01*
X121272Y357000D02*
X135366D01*
X120569Y358000D02*
X136069D01*
X120569Y359000D02*
X136069D01*
X120569Y360000D02*
X136069D01*
X120569Y361000D02*
X136069D01*
X120569Y362000D02*
X136069D01*
X120569Y363000D02*
X136069D01*
X120569Y364000D02*
X136069D01*
X120594Y365000D02*
X136043D01*
X121594Y366000D02*
X135043D01*
X121000Y357272D02*
Y365406D01*
X122000Y356272D02*
Y366406D01*
X123000Y355933D02*
Y366744D01*
X124000Y355933D02*
Y366744D01*
X125000Y355933D02*
Y366744D01*
X126000Y355933D02*
Y366744D01*
X127000Y355933D02*
Y366744D01*
X128000Y355933D02*
Y366744D01*
X129000Y355933D02*
Y366744D01*
X130000Y355933D02*
Y366744D01*
X131000Y355933D02*
Y366744D01*
X132000Y355933D02*
Y366744D01*
X133000Y355933D02*
Y366744D01*
X134000Y355933D02*
Y366744D01*
X135000Y356634D02*
Y366043D01*
X136000Y357634D02*
Y365043D01*
X279953Y347408D02*
Y349994D01*
X281160Y351201*
X283746*
X284953Y349994*
Y347408*
X283746Y346201*
X281160*
X279953Y347408*
X280361Y347000D02*
X284545D01*
X279953Y348000D02*
X284953D01*
X279953Y349000D02*
X284953D01*
X279959Y350000D02*
X284946D01*
X280959Y351000D02*
X283946D01*
X280000Y347361D02*
Y350041D01*
X281000Y346361D02*
Y351041D01*
X282000Y346201D02*
Y351201D01*
X283000Y346201D02*
Y351201D01*
X284000Y346455D02*
Y350946D01*
X279953Y337408D02*
Y339994D01*
X281160Y341201*
X283746*
X284953Y339994*
Y337408*
X283746Y336201*
X281160*
X279953Y337408*
X280361Y337000D02*
X284545D01*
X279953Y338000D02*
X284953D01*
X279953Y339000D02*
X284953D01*
X279959Y340000D02*
X284946D01*
X280959Y341000D02*
X283946D01*
X280000Y337361D02*
Y340041D01*
X281000Y336361D02*
Y341041D01*
X282000Y336201D02*
Y341201D01*
X283000Y336201D02*
Y341201D01*
X284000Y336455D02*
Y340946D01*
X269953Y347408D02*
Y349994D01*
X271160Y351201*
X273746*
X274953Y349994*
Y347408*
X273746Y346201*
X271160*
X269953Y347408*
X270361Y347000D02*
X274545D01*
X269953Y348000D02*
X274953D01*
X269953Y349000D02*
X274953D01*
X269959Y350000D02*
X274946D01*
X270959Y351000D02*
X273946D01*
X270000Y347361D02*
Y350041D01*
X271000Y346361D02*
Y351041D01*
X272000Y346201D02*
Y351201D01*
X273000Y346201D02*
Y351201D01*
X274000Y346455D02*
Y350946D01*
X269953Y337408D02*
Y339994D01*
X271160Y341201*
X273746*
X274953Y339994*
Y337408*
X273746Y336201*
X271160*
X269953Y337408*
X270361Y337000D02*
X274545D01*
X269953Y338000D02*
X274953D01*
X269953Y339000D02*
X274953D01*
X269959Y340000D02*
X274946D01*
X270959Y341000D02*
X273946D01*
X270000Y337361D02*
Y340041D01*
X271000Y336361D02*
Y341041D01*
X272000Y336201D02*
Y341201D01*
X273000Y336201D02*
Y341201D01*
X274000Y336455D02*
Y340946D01*
X259953Y347408D02*
Y349994D01*
X261160Y351201*
X263746*
X264953Y349994*
Y347408*
X263746Y346201*
X261160*
X259953Y347408*
X260361Y347000D02*
X264545D01*
X259953Y348000D02*
X264953D01*
X259953Y349000D02*
X264953D01*
X259959Y350000D02*
X264946D01*
X260959Y351000D02*
X263946D01*
X260000Y347361D02*
Y350041D01*
X261000Y346361D02*
Y351041D01*
X262000Y346201D02*
Y351201D01*
X263000Y346201D02*
Y351201D01*
X264000Y346455D02*
Y350946D01*
X259953Y337408D02*
Y339994D01*
X261160Y341201*
X263746*
X264953Y339994*
Y337408*
X263746Y336201*
X261160*
X259953Y337408*
X260361Y337000D02*
X264545D01*
X259953Y338000D02*
X264953D01*
X259953Y339000D02*
X264953D01*
X259959Y340000D02*
X264946D01*
X260959Y341000D02*
X263946D01*
X260000Y337361D02*
Y340041D01*
X261000Y336361D02*
Y341041D01*
X262000Y336201D02*
Y341201D01*
X263000Y336201D02*
Y341201D01*
X264000Y336455D02*
Y340946D01*
X249953Y347408D02*
Y349994D01*
X251160Y351201*
X253746*
X254953Y349994*
Y347408*
X253746Y346201*
X251160*
X249953Y347408*
X250361Y347000D02*
X254545D01*
X249953Y348000D02*
X254953D01*
X249953Y349000D02*
X254953D01*
X249959Y350000D02*
X254946D01*
X250959Y351000D02*
X253946D01*
X250000Y347361D02*
Y350041D01*
X251000Y346361D02*
Y351041D01*
X252000Y346201D02*
Y351201D01*
X253000Y346201D02*
Y351201D01*
X254000Y346455D02*
Y350946D01*
X249953Y337408D02*
Y339994D01*
X251160Y341201*
X253746*
X254953Y339994*
Y337408*
X253746Y336201*
X251160*
X249953Y337408*
X250361Y337000D02*
X254545D01*
X249953Y338000D02*
X254953D01*
X249953Y339000D02*
X254953D01*
X249959Y340000D02*
X254946D01*
X250959Y341000D02*
X253946D01*
X250000Y337361D02*
Y340041D01*
X251000Y336361D02*
Y341041D01*
X252000Y336201D02*
Y341201D01*
X253000Y336201D02*
Y341201D01*
X254000Y336455D02*
Y340946D01*
X239953Y347408D02*
Y349994D01*
X241160Y351201*
X243746*
X244953Y349994*
Y347408*
X243746Y346201*
X241160*
X239953Y347408*
X240361Y347000D02*
X244545D01*
X239953Y348000D02*
X244953D01*
X239953Y349000D02*
X244953D01*
X239959Y350000D02*
X244946D01*
X240959Y351000D02*
X243946D01*
X240000Y347361D02*
Y350041D01*
X241000Y346361D02*
Y351041D01*
X242000Y346201D02*
Y351201D01*
X243000Y346201D02*
Y351201D01*
X244000Y346455D02*
Y350946D01*
X239953Y337408D02*
Y339994D01*
X241160Y341201*
X243746*
X244953Y339994*
Y337408*
X243746Y336201*
X241160*
X239953Y337408*
X240361Y337000D02*
X244545D01*
X239953Y338000D02*
X244953D01*
X239953Y339000D02*
X244953D01*
X239959Y340000D02*
X244946D01*
X240959Y341000D02*
X243946D01*
X240000Y337361D02*
Y340041D01*
X241000Y336361D02*
Y341041D01*
X242000Y336201D02*
Y341201D01*
X243000Y336201D02*
Y341201D01*
X244000Y336455D02*
Y340946D01*
X182407Y292256D02*
X179821D01*
X178614Y293463*
Y302049*
X179821Y303256*
X182407*
X183614Y302049*
Y293463*
X182407Y292256*
X179077Y293000D02*
X183151D01*
X178614Y294000D02*
X183614D01*
X178614Y295000D02*
X183614D01*
X178614Y296000D02*
X183614D01*
X178614Y297000D02*
X183614D01*
X178614Y298000D02*
X183614D01*
X178614Y299000D02*
X183614D01*
X178614Y300000D02*
X183614D01*
X178614Y301000D02*
X183614D01*
X178614Y302000D02*
X183614D01*
X179565Y303000D02*
X182663D01*
X179000Y293077D02*
Y302435D01*
X180000Y292256D02*
Y303256D01*
X181000Y292256D02*
Y303256D01*
X182000Y292256D02*
Y303256D01*
X183000Y292849D02*
Y302663D01*
X192407Y292256D02*
X189821D01*
X188614Y293463*
Y302049*
X189821Y303256*
X192407*
X193614Y302049*
Y293463*
X192407Y292256*
X189077Y293000D02*
X193151D01*
X188614Y294000D02*
X193614D01*
X188614Y295000D02*
X193614D01*
X188614Y296000D02*
X193614D01*
X188614Y297000D02*
X193614D01*
X188614Y298000D02*
X193614D01*
X188614Y299000D02*
X193614D01*
X188614Y300000D02*
X193614D01*
X188614Y301000D02*
X193614D01*
X188614Y302000D02*
X193614D01*
X189565Y303000D02*
X192663D01*
X189000Y293077D02*
Y302435D01*
X190000Y292256D02*
Y303256D01*
X191000Y292256D02*
Y303256D01*
X192000Y292256D02*
Y303256D01*
X193000Y292849D02*
Y302663D01*
X202407Y292256D02*
X199821D01*
X198614Y293463*
Y302049*
X199821Y303256*
X202407*
X203614Y302049*
Y293463*
X202407Y292256*
X199077Y293000D02*
X203151D01*
X198614Y294000D02*
X203614D01*
X198614Y295000D02*
X203614D01*
X198614Y296000D02*
X203614D01*
X198614Y297000D02*
X203614D01*
X198614Y298000D02*
X203614D01*
X198614Y299000D02*
X203614D01*
X198614Y300000D02*
X203614D01*
X198614Y301000D02*
X203614D01*
X198614Y302000D02*
X203614D01*
X199565Y303000D02*
X202663D01*
X199000Y293077D02*
Y302435D01*
X200000Y292256D02*
Y303256D01*
X201000Y292256D02*
Y303256D01*
X202000Y292256D02*
Y303256D01*
X203000Y292849D02*
Y302663D01*
X154413Y190741D02*
Y193197D01*
X155556Y194339*
X158011*
X159154Y193197*
Y190741*
X158011Y189599*
X155556*
X154413Y190741*
X155154Y190000D02*
X158413D01*
X154413Y191000D02*
X159154D01*
X154413Y192000D02*
X159154D01*
X154413Y193000D02*
X159154D01*
X155217Y194000D02*
X158350D01*
X155000Y190154D02*
Y193783D01*
X156000Y189599D02*
Y194339D01*
X157000Y189599D02*
Y194339D01*
X158000Y189599D02*
Y194339D01*
X159000Y190587D02*
Y193350D01*
X154413Y200583D02*
Y203039D01*
X155556Y204181*
X158011*
X159154Y203039*
Y200583*
X158011Y199441*
X155556*
X154413Y200583*
X154996Y200000D02*
X158571D01*
X154413Y201000D02*
X159154D01*
X154413Y202000D02*
X159154D01*
X154413Y203000D02*
X159154D01*
X155375Y204000D02*
X158192D01*
X155000Y199996D02*
Y203625D01*
X156000Y199441D02*
Y204181D01*
X157000Y199441D02*
Y204181D01*
X158000Y199441D02*
Y204181D01*
X159000Y200429D02*
Y203192D01*
X146539Y200583D02*
Y203039D01*
X147682Y204181*
X150137*
X151280Y203039*
Y200583*
X150137Y199441*
X147682*
X146539Y200583*
X147122Y200000D02*
X150697D01*
X146539Y201000D02*
X151280D01*
X146539Y202000D02*
X151280D01*
X146539Y203000D02*
X151280D01*
X147501Y204000D02*
X150318D01*
X147000Y200122D02*
Y203499D01*
X148000Y199441D02*
Y204181D01*
X149000Y199441D02*
Y204181D01*
X150000Y199441D02*
Y204181D01*
X151000Y200303D02*
Y203318D01*
X146539Y190741D02*
Y193197D01*
X147682Y194339*
X150137*
X151280Y193197*
Y190741*
X150137Y189599*
X147682*
X146539Y190741*
X147280Y190000D02*
X150539D01*
X146539Y191000D02*
X151280D01*
X146539Y192000D02*
X151280D01*
X146539Y193000D02*
X151280D01*
X147343Y194000D02*
X150476D01*
X147000Y190280D02*
Y193657D01*
X148000Y189599D02*
Y194339D01*
X149000Y189599D02*
Y194339D01*
X150000Y189599D02*
Y194339D01*
X151000Y190461D02*
Y193476D01*
X181738Y245996D02*
X179152D01*
X177945Y247203*
Y255789*
X179152Y256996*
X181738*
X182945Y255789*
Y247203*
X181738Y245996*
X179148Y246000D02*
X181742D01*
X178148Y247000D02*
X182742D01*
X177945Y248000D02*
X182945D01*
X177945Y249000D02*
X182945D01*
X177945Y250000D02*
X182945D01*
X177945Y251000D02*
X182945D01*
X177945Y252000D02*
X182945D01*
X177945Y253000D02*
X182945D01*
X177945Y254000D02*
X182945D01*
X177945Y255000D02*
X182945D01*
X178156Y256000D02*
X182734D01*
X178000Y247148D02*
Y255844D01*
X179000Y246148D02*
Y256844D01*
X180000Y245996D02*
Y256996D01*
X181000Y245996D02*
Y256996D01*
X182000Y246258D02*
Y256734D01*
X191738Y245996D02*
X189152D01*
X187945Y247203*
Y255789*
X189152Y256996*
X191738*
X192945Y255789*
Y247203*
X191738Y245996*
X189148Y246000D02*
X191742D01*
X188148Y247000D02*
X192742D01*
X187945Y248000D02*
X192945D01*
X187945Y249000D02*
X192945D01*
X187945Y250000D02*
X192945D01*
X187945Y251000D02*
X192945D01*
X187945Y252000D02*
X192945D01*
X187945Y253000D02*
X192945D01*
X187945Y254000D02*
X192945D01*
X187945Y255000D02*
X192945D01*
X188156Y256000D02*
X192734D01*
X188000Y247148D02*
Y255844D01*
X189000Y246148D02*
Y256844D01*
X190000Y245996D02*
Y256996D01*
X191000Y245996D02*
Y256996D01*
X192000Y246258D02*
Y256734D01*
X201738Y245996D02*
X199152D01*
X197945Y247203*
Y255789*
X199152Y256996*
X201738*
X202945Y255789*
Y247203*
X201738Y245996*
X199148Y246000D02*
X201742D01*
X198148Y247000D02*
X202742D01*
X197945Y248000D02*
X202945D01*
X197945Y249000D02*
X202945D01*
X197945Y250000D02*
X202945D01*
X197945Y251000D02*
X202945D01*
X197945Y252000D02*
X202945D01*
X197945Y253000D02*
X202945D01*
X197945Y254000D02*
X202945D01*
X197945Y255000D02*
X202945D01*
X198156Y256000D02*
X202734D01*
X198000Y247148D02*
Y255844D01*
X199000Y246148D02*
Y256844D01*
X200000Y245996D02*
Y256996D01*
X201000Y245996D02*
Y256996D01*
X202000Y246258D02*
Y256734D01*
X136069Y304935D02*
Y297663D01*
X134299Y295894*
X122339*
X122339D02*
X120569Y297663D01*
Y304935*
X122339Y306705*
X122339D02*
X134299D01*
X136069Y304935*
X122232Y296000D02*
X134406D01*
X121232Y297000D02*
X135406D01*
X120569Y298000D02*
X136069D01*
X120569Y299000D02*
X136069D01*
X120569Y300000D02*
X136069D01*
X120569Y301000D02*
X136069D01*
X120569Y302000D02*
X136069D01*
X120569Y303000D02*
X136069D01*
X120569Y304000D02*
X136069D01*
X120634Y305000D02*
X136004D01*
X121634Y306000D02*
X135004D01*
X121000Y297232D02*
Y305366D01*
X122000Y296232D02*
Y306366D01*
X123000Y295894D02*
Y306705D01*
X124000Y295894D02*
Y306705D01*
X125000Y295894D02*
Y306705D01*
X126000Y295894D02*
Y306705D01*
X127000Y295894D02*
Y306705D01*
X128000Y295894D02*
Y306705D01*
X129000Y295894D02*
Y306705D01*
X130000Y295894D02*
Y306705D01*
X131000Y295894D02*
Y306705D01*
X132000Y295894D02*
Y306705D01*
X133000Y295894D02*
Y306705D01*
X134000Y295894D02*
Y306705D01*
X135000Y296594D02*
Y306004D01*
X136000Y297594D02*
Y305004D01*
X136069Y324935D02*
Y317663D01*
X134299Y315894*
X122339*
X122339D02*
X120569Y317663D01*
Y324935*
X122339Y326705*
X122339D02*
X134299D01*
X136069Y324935*
X122232Y316000D02*
X134406D01*
X121232Y317000D02*
X135406D01*
X120569Y318000D02*
X136069D01*
X120569Y319000D02*
X136069D01*
X120569Y320000D02*
X136069D01*
X120569Y321000D02*
X136069D01*
X120569Y322000D02*
X136069D01*
X120569Y323000D02*
X136069D01*
X120569Y324000D02*
X136069D01*
X120634Y325000D02*
X136004D01*
X121634Y326000D02*
X135004D01*
X121000Y317232D02*
Y325366D01*
X122000Y316232D02*
Y326366D01*
X123000Y315894D02*
Y326705D01*
X124000Y315894D02*
Y326705D01*
X125000Y315894D02*
Y326705D01*
X126000Y315894D02*
Y326705D01*
X127000Y315894D02*
Y326705D01*
X128000Y315894D02*
Y326705D01*
X129000Y315894D02*
Y326705D01*
X130000Y315894D02*
Y326705D01*
X131000Y315894D02*
Y326705D01*
X132000Y315894D02*
Y326705D01*
X133000Y315894D02*
Y326705D01*
X134000Y315894D02*
Y326705D01*
X135000Y316594D02*
Y326004D01*
X136000Y317594D02*
Y325004D01*
X182604Y338437D02*
X180018D01*
X178811Y339644*
Y348230*
X180018Y349437*
X182604*
X183811Y348230*
Y339644*
X182604Y338437*
X179455Y339000D02*
X183167D01*
X178811Y340000D02*
X183811D01*
X178811Y341000D02*
X183811D01*
X178811Y342000D02*
X183811D01*
X178811Y343000D02*
X183811D01*
X178811Y344000D02*
X183811D01*
X178811Y345000D02*
X183811D01*
X178811Y346000D02*
X183811D01*
X178811Y347000D02*
X183811D01*
X178811Y348000D02*
X183811D01*
X179581Y349000D02*
X183041D01*
X179000Y339455D02*
Y348419D01*
X180000Y338455D02*
Y349419D01*
X181000Y338437D02*
Y349437D01*
X182000Y338437D02*
Y349437D01*
X183000Y338833D02*
Y349041D01*
X192604Y338437D02*
X190018D01*
X188811Y339644*
Y348230*
X190018Y349437*
X192604*
X193811Y348230*
Y339644*
X192604Y338437*
X189455Y339000D02*
X193167D01*
X188811Y340000D02*
X193811D01*
X188811Y341000D02*
X193811D01*
X188811Y342000D02*
X193811D01*
X188811Y343000D02*
X193811D01*
X188811Y344000D02*
X193811D01*
X188811Y345000D02*
X193811D01*
X188811Y346000D02*
X193811D01*
X188811Y347000D02*
X193811D01*
X188811Y348000D02*
X193811D01*
X189581Y349000D02*
X193041D01*
X189000Y339455D02*
Y348419D01*
X190000Y338455D02*
Y349419D01*
X191000Y338437D02*
Y349437D01*
X192000Y338437D02*
Y349437D01*
X193000Y338833D02*
Y349041D01*
X202604Y338437D02*
X200018D01*
X198811Y339644*
Y348230*
X200018Y349437*
X202604*
X203811Y348230*
Y339644*
X202604Y338437*
X199455Y339000D02*
X203167D01*
X198811Y340000D02*
X203811D01*
X198811Y341000D02*
X203811D01*
X198811Y342000D02*
X203811D01*
X198811Y343000D02*
X203811D01*
X198811Y344000D02*
X203811D01*
X198811Y345000D02*
X203811D01*
X198811Y346000D02*
X203811D01*
X198811Y347000D02*
X203811D01*
X198811Y348000D02*
X203811D01*
X199581Y349000D02*
X203041D01*
X199000Y339455D02*
Y348419D01*
X200000Y338455D02*
Y349419D01*
X201000Y338437D02*
Y349437D01*
X202000Y338437D02*
Y349437D01*
X203000Y338833D02*
Y349041D01*
X358268Y104841D02*
Y107427D01*
X359475Y108634*
X362061*
X363268Y107427*
Y104841*
X362061Y103634*
X359475*
X358268Y104841*
X359109Y104000D02*
X362427D01*
X358268Y105000D02*
X363268D01*
X358268Y106000D02*
X363268D01*
X358268Y107000D02*
X363268D01*
X358841Y108000D02*
X362694D01*
X359000Y104109D02*
Y108159D01*
X360000Y103634D02*
Y108634D01*
X361000Y103634D02*
Y108634D01*
X362000Y103634D02*
Y108634D01*
X363000Y104573D02*
Y107694D01*
X243028Y234176D02*
Y236761D01*
X244235Y237969*
X246820*
X248028Y236761*
Y234176*
X246820Y232969*
X244235*
X243028Y234176*
X244203Y233000D02*
X246852D01*
X243203Y234000D02*
X247852D01*
X243028Y235000D02*
X248028D01*
X243028Y236000D02*
X248028D01*
X243266Y237000D02*
X247789D01*
X244000Y233203D02*
Y237734D01*
X245000Y232969D02*
Y237969D01*
X246000Y232969D02*
Y237969D01*
X247000Y233148D02*
Y237789D01*
X248000Y234148D02*
Y236789D01*
X283129Y193533D02*
X281343D01*
X280536Y194340*
Y200526*
X281343Y201333*
X283129*
X283936Y200526*
Y194340*
X283129Y193533*
X280876Y194000D02*
X283596D01*
X280536Y195000D02*
X283936D01*
X280536Y196000D02*
X283936D01*
X280536Y197000D02*
X283936D01*
X280536Y198000D02*
X283936D01*
X280536Y199000D02*
X283936D01*
X280536Y200000D02*
X283936D01*
X281010Y201000D02*
X283462D01*
X281000Y193876D02*
Y200990D01*
X282000Y193533D02*
Y201333D01*
X283000Y193533D02*
Y201333D01*
X303129Y193533D02*
X301343D01*
X300536Y194340*
Y200526*
X301343Y201333*
X303129*
X303936Y200526*
Y194340*
X303129Y193533*
X300876Y194000D02*
X303596D01*
X300536Y195000D02*
X303936D01*
X300536Y196000D02*
X303936D01*
X300536Y197000D02*
X303936D01*
X300536Y198000D02*
X303936D01*
X300536Y199000D02*
X303936D01*
X300536Y200000D02*
X303936D01*
X301010Y201000D02*
X303462D01*
X301000Y193876D02*
Y200990D01*
X302000Y193533D02*
Y201333D01*
X303000Y193533D02*
Y201333D01*
G54D31*
X100009Y409997D02*
Y99997D01*
X522602*
Y409997*
X100009*
X485626Y114331D02*
G75*
G03X485626I-6299J0D01*
G01X119894Y396571D02*
G03X119894I-6300J0D01*
G01X485626D02*
G03X485626I-6299J0D01*
G01X119894Y114331D02*
G03X119894I-6300J0D01*
G54D47*
G01X258004Y289173D03*
Y287205D03*
Y285236D03*
Y283268D03*
Y281299D03*
Y279331D03*
Y277362D03*
Y275394D03*
Y273425D03*
Y271457D03*
Y269488D03*
Y267520D03*
Y265551D03*
Y263583D03*
Y261614D03*
Y259646D03*
Y257677D03*
Y255709D03*
Y253740D03*
Y251772D03*
Y249803D03*
Y247835D03*
Y245866D03*
Y243897D03*
Y241929D03*
X320996D03*
Y243897D03*
Y245866D03*
Y247835D03*
Y249803D03*
Y251772D03*
Y253740D03*
Y255709D03*
Y257677D03*
Y259646D03*
Y261614D03*
Y263583D03*
Y265551D03*
Y267520D03*
Y269488D03*
Y271457D03*
Y273425D03*
Y275394D03*
Y277362D03*
Y279331D03*
Y281299D03*
Y283268D03*
Y285236D03*
Y287205D03*
Y289173D03*
G54D48*
X265878Y234055D03*
X267846D03*
X269815D03*
X271783D03*
X273752D03*
X275720D03*
X277689D03*
X279657D03*
X281626D03*
X283594D03*
X285563D03*
X287531D03*
X289500D03*
X291468D03*
X293437D03*
X295405D03*
X297374D03*
X299342D03*
X301311D03*
X303279D03*
X305248D03*
X307216D03*
X309185D03*
X311153D03*
X313122D03*
Y297047D03*
X311153D03*
X309185D03*
X307216D03*
X305248D03*
X303279D03*
X301311D03*
X299342D03*
X297374D03*
X295405D03*
X293437D03*
X291468D03*
X289500D03*
X287531D03*
X285563D03*
X283594D03*
X281626D03*
X279657D03*
X277689D03*
X275720D03*
X273752D03*
X271783D03*
X269815D03*
X267846D03*
X265878D03*
G54D49*
X379071Y211169D03*
Y204169D03*
X299110Y216657D03*
Y209657D03*
X379071Y381524D03*
Y388524D03*
Y123697D03*
Y130697D03*
Y260091D03*
Y253091D03*
Y316429D03*
Y309429D03*
X264108Y175982D03*
Y168982D03*
X104461Y348343D03*
Y341343D03*
X104295Y268303D03*
Y261303D03*
X269827Y310252D03*
Y317252D03*
X239738Y175904D03*
Y168904D03*
X220441Y190906D03*
Y197906D03*
X247769Y176061D03*
Y169061D03*
X305272Y310252D03*
Y317252D03*
X283063Y209657D03*
Y216657D03*
X307398D03*
Y209657D03*
X272297Y175982D03*
Y168982D03*
X291125Y209657D03*
Y216657D03*
X130913Y116992D03*
Y123992D03*
X355453Y185626D03*
Y192626D03*
X334370Y209921D03*
Y216921D03*
X326280Y209921D03*
Y216921D03*
X280815Y176240D03*
Y169240D03*
X264381Y155175D03*
Y148175D03*
X266311Y216657D03*
Y209657D03*
X274543Y216657D03*
Y209657D03*
X308524Y160677D03*
Y153677D03*
X104575Y308315D03*
Y301315D03*
X212193Y197906D03*
Y190906D03*
X203945Y197969D03*
Y190969D03*
X138941Y124004D03*
Y117004D03*
X255998Y169140D03*
Y176140D03*
G54D50*
X429724Y244094D03*
X436724D03*
X429724Y305118D03*
X436724D03*
X429724Y365980D03*
X436724D03*
X429724Y183858D03*
X436724D03*
X233839Y375311D03*
X226839D03*
X250972Y378799D03*
X243972D03*
X122425Y233945D03*
X129425D03*
X154799Y246520D03*
X147799D03*
X270539Y378799D03*
X263539D03*
X364839Y309016D03*
X357839D03*
X364776Y317323D03*
X357776D03*
X134472Y233945D03*
X141472D03*
X245598Y271370D03*
X238598D03*
X155942Y291656D03*
X148942D03*
X155509Y337652D03*
X148509D03*
X321406Y368579D03*
X314406D03*
X181413Y171815D03*
X174413D03*
X152969Y237205D03*
X159969D03*
X326583Y368618D03*
X333583D03*
X289555Y378799D03*
X282555D03*
X233839Y367358D03*
X226839D03*
X429724Y122047D03*
X436724D03*
X194684Y161544D03*
X201684D03*
X159970Y228663D03*
X152970D03*
G54D51*
X371280Y172598D03*
X362224D03*
X353169D03*
G54D52*
X362224Y150158D03*
G54D53*
X388094Y370965D03*
X421402D03*
X388094Y380965D03*
X421402D03*
X388094Y390965D03*
X421402D03*
X388094Y127630D03*
X421402D03*
X388094Y137630D03*
X421402D03*
X388094Y147630D03*
X421402D03*
X388094Y188799D03*
X421402D03*
X388094Y198799D03*
X421402D03*
X388094Y208799D03*
X421402D03*
X388094Y248626D03*
X421402D03*
X388094Y258626D03*
X421402D03*
X388094Y268626D03*
X421402D03*
X388094Y309457D03*
X421402D03*
X388094Y319457D03*
X421402D03*
X388094Y329457D03*
X421402D03*
G54D54*
X504728Y140386D03*
Y204299D03*
Y172425D03*
Y108409D03*
G54D55*
Y148134D03*
Y156134D03*
Y212047D03*
Y220047D03*
Y180173D03*
Y188173D03*
Y116157D03*
Y124157D03*
G54D56*
X388736Y162299D03*
X458736D03*
X448736Y112299D03*
X388736D03*
X448736Y162299D03*
X438736D03*
X428736D03*
X418736D03*
X408736D03*
X398736D03*
Y112299D03*
X458736D03*
X418736D03*
X408736D03*
X428736D03*
X438736D03*
X388583Y223240D03*
X458583D03*
X448583Y173240D03*
X388583D03*
X448583Y223240D03*
X438583D03*
X428583D03*
X418583D03*
X408583D03*
X398583D03*
Y173240D03*
X458583D03*
X418583D03*
X408583D03*
X428583D03*
X438583D03*
X388650Y405315D03*
X458650D03*
X448650Y355315D03*
X388650D03*
X448650Y405315D03*
X438650D03*
X428650D03*
X418650D03*
X408650D03*
X398650D03*
Y355315D03*
X458650D03*
X418650D03*
X408650D03*
X428650D03*
X438650D03*
X388728Y344713D03*
X458728D03*
X448728Y294713D03*
X388728D03*
X448728Y344713D03*
X438728D03*
X428728D03*
X418728D03*
X408728D03*
X398728D03*
Y294713D03*
X458728D03*
X418728D03*
X408728D03*
X428728D03*
X438728D03*
X388594Y283846D03*
X458594D03*
X448594Y233846D03*
X388594D03*
X448594Y283846D03*
X438594D03*
X428594D03*
X418594D03*
X408594D03*
X398594D03*
Y233846D03*
X458594D03*
X418594D03*
X408594D03*
X428594D03*
X438594D03*
G54D57*
X166354Y177307D03*
Y182807D03*
X104449Y355839D03*
Y361339D03*
X216579Y227055D03*
X222079D03*
X222098Y234146D03*
X216598D03*
X178626Y215394D03*
X173126D03*
X104583Y315807D03*
Y321307D03*
X104295Y275657D03*
Y281157D03*
X130966Y110689D03*
Y105189D03*
X138941Y110594D03*
Y105094D03*
X174988Y189811D03*
X180488D03*
X196201Y199610D03*
Y205110D03*
X235083Y207165D03*
X229583D03*
X217122Y206890D03*
X222622D03*
X217071Y213850D03*
X222571D03*
X235083Y213925D03*
X229583D03*
X258646Y210689D03*
Y216189D03*
X189457Y199610D03*
Y205110D03*
X236469Y292453D03*
X241969D03*
X241996Y285437D03*
X236496D03*
G54D58*
X181260Y180610D03*
X174567D03*
G54D59*
X481634Y190908D03*
Y200908D03*
Y210908D03*
Y220908D03*
Y139508D03*
Y149508D03*
Y159508D03*
Y169508D03*
Y343940D03*
Y353940D03*
Y363940D03*
Y373940D03*
X502543Y400091D03*
Y390091D03*
X279555Y394339D03*
X289555D03*
X481524Y292906D03*
Y302906D03*
Y312906D03*
Y322906D03*
X481634Y241814D03*
Y251814D03*
Y261814D03*
Y271814D03*
X502543Y249346D03*
Y239346D03*
Y369909D03*
Y359909D03*
Y340031D03*
Y330031D03*
Y309756D03*
Y299756D03*
Y279484D03*
Y269484D03*
X216622Y394339D03*
X226622D03*
X248130D03*
X258130D03*
G54D60*
X191114Y319764D03*
X190445Y273504D03*
X191311Y365945D03*
G54D61*
X138240Y220512D03*
Y173268D03*
G54D62*
X152807Y151102D03*
X181941D03*
X152965Y127953D03*
X182098D03*
G54D63*
X194894Y143386D03*
X214579D03*
X456138Y203543D03*
X436453D03*
X456138Y384020D03*
X436453D03*
X456138Y263386D03*
X436453D03*
X456138Y324409D03*
X436453D03*
X318780Y164756D03*
X338465D03*
X456138Y141732D03*
X436453D03*
X243994Y116973D03*
X263680D03*
X195209Y116024D03*
X214894D03*
G54D64*
X150830Y107631D03*
X168547D03*
X227098Y165236D03*
Y147520D03*
X296050Y157094D03*
X278334D03*
X227846Y107677D03*
Y125394D03*
X151744Y369803D03*
Y352087D03*
X152413Y323976D03*
Y306260D03*
X151902Y277165D03*
Y259449D03*
G54D65*
X291701Y368480D03*
X282701D03*
X251543Y368283D03*
X242543D03*
X271543Y368362D03*
X262543D03*
G54D66*
X203721Y235240D03*
X201752D03*
X199784D03*
X197815D03*
X195847D03*
X193878D03*
X191910D03*
X189941D03*
Y214768D03*
X191910D03*
X193878D03*
X195847D03*
X197815D03*
X199784D03*
X201752D03*
X203721D03*
G54D67*
X186595Y231894D03*
Y229925D03*
Y227957D03*
Y225988D03*
Y224020D03*
Y222051D03*
Y220083D03*
Y218114D03*
X207067D03*
Y220083D03*
Y222051D03*
Y224020D03*
Y225988D03*
Y227957D03*
Y229925D03*
Y231894D03*
G54D68*
X196831Y225004D03*
G54D69*
X184906Y110693D03*
Y104000D03*
G54D70*
X335598Y107469D03*
X349098D03*
X303583Y171618D03*
X290083D03*
G54D71*
X342394Y217224D03*
Y209724D03*
X181484Y204416D03*
X173984D03*
G54D72*
X350394Y213424D03*
G54D73*
X367866Y185201D03*
Y197799D03*
X341500Y183673D03*
Y196272D03*
G54D74*
X278358Y125197D03*
X322059D03*
G54D75*
X333333Y107476D03*
X351285D03*
G54D76*
X342309Y136216D03*
G54D77*
X311536Y406225D03*
X344606D03*
X311536Y388508D03*
X344606D03*
X311536Y397366D03*
G54D78*
X177684Y196416D03*
G54D79*
X211627Y168248D03*
Y173248D03*
Y178248D03*
Y183248D03*
X191154D03*
Y178248D03*
Y173248D03*
Y168248D03*
G54D80*
X165602Y191768D03*
Y200768D03*
G54D81*
X240420Y135452D03*
X245420D03*
X250420D03*
X255420D03*
Y157452D03*
X250420D03*
X245420D03*
X240420D03*
G54D82*
X109697Y139291D03*
G54D83*
X131744D03*
Y155354D03*
X109697D03*
G74*
X0Y0D02*
M02*
