%
T1C.02F197S55
X012596Y010425
X012329Y018862
X015244Y021717
X01477Y022445
X014538Y022906
X014696Y023717
X014201Y024642
X014221Y029145
X014319Y033761
X017674Y023194
X019326Y022867
X020046Y022862
X016841Y022578
X019691Y022518
X020042Y022158
X019326Y022158
X016864Y021523
X018993Y021056
X020179Y020566
X018972Y019475
X019611Y019459
X018978Y01903
X019611Y019021
X020006Y01782
X020331Y017409
X017855Y011181
X021494Y012357
X020652Y012391
X02185Y013017
X020707Y013653
X021434Y013654
X021241Y01613
X020655Y016135
X022126Y01778
X02268Y018259
X022033Y018287
X021167Y021458
X022174Y021886
X021455Y021932
X022472Y022322
X022744Y023385
X021206Y023501
X021409Y024382
X022324Y026422
X022748Y027035
X022577Y027706
X022998Y028005
X023046Y029288
X02296Y030037
X022978Y031116
X023876Y037865
X024101Y037378
X025074Y031669
X025134Y031141
X023686Y030515
X023972Y029812
X025022Y029707
X025251Y029334
X024926Y02832
X024256Y028012
X025135Y027706
X025076Y027131
X023857Y02655
X023256Y025803
X024927Y025184
X024029Y025172
X023996Y024572
X023181Y02408
X023524Y023346
X024041Y022558
X023784Y022134
X0238Y019984
X025383Y019457
X023547Y019211
X025133Y018673
X023983Y015021
X02439Y014294
X023569Y013503
X026431Y016423
X027806Y019149
X026961Y019211
X026255Y020084
X027396Y020489
X027089Y022556
X025952Y023039
X027798Y024207
X027724Y025909
X026471Y026103
X027754Y026471
X02647Y026585
X027316Y026742
X027579Y027377
X026464Y02813
X027252Y02897
X027691Y028977
X026126Y03008
X025696Y030504
X027556Y030524
X026135Y031506
X027026Y0322
X026709Y036202
X025694Y037313
X02571Y037863
X027633Y037863
X030476Y040003
X030489Y039263
X030489Y038499
X030339Y03719
X028359Y036299
X030464Y035538
X029882Y03488
X029817Y034143
X029472Y031803
X029474Y03098
X02947Y027372
X028213Y025809
X028962Y025412
X028473Y024828
X029093Y020197
X02965Y019162
X028807Y019152
X028444Y018227
X02944Y018138
X030849Y012314
X030849Y013634
X03087Y014891
X030995Y019157
X032603Y01919
X031979Y020086
X031297Y021673
X032048Y02168
X032544Y023524
X030851Y024207
X031487Y025109
X032955Y025725
X032842Y026575
X031482Y026649
X032992Y027362
X03074Y027852
X032186Y030035
X032095Y032366
X032611Y033111
X035236Y038504
X034889Y037704
X034052Y03649
X035079Y031181
X034488Y030709
X033944Y029248
X033098Y029243
X034213Y027402
X033594Y026813
X035357Y026813
X034631Y025726
X034162Y02347
X035209Y023444
X034261Y020493
X033279Y020197
X035511Y019825
X035725Y020466
X036514Y020547
X036155Y02132
X037151Y023657
X037992Y024449
X036732Y025984
X036732Y026811
X036095Y029144
X035725Y030337
X037899Y032315
X036468Y032315
X037283Y033504
X037244Y034016
X037638Y035079
X037272Y035478
X037204Y037323
X036384Y037596
X035828Y038165
X036154Y039046
X036222Y039995
X040354Y039961
X041721Y039946
X04122Y036575
X039865Y036535
X039567Y030276
X038622Y030276
X038227Y028915
X041708Y027804
X038117Y023511
X041253Y021745
X039094Y018386
X039803Y018346
X040972Y018324
X038386Y017756
X039409Y016811
X041506Y015618
X039171Y015332
X039762Y012245
X040972Y012245
X04365Y014824
X043639Y020839
X043622Y027126
X043635Y032926
X043644Y03912
T2C.024F197S55
X028224Y019743
X030224Y019743
T3C.02756F197S55
X050473Y010841
X050473Y011616
X050473Y012416
X050473Y014039
X050473Y014813
X050473Y015613
X050473Y017243
X050473Y018017
X050473Y018817
X050473Y02043
X050473Y021205
X050473Y022005
T4C.0315F197S55
X011299Y022699
X01058Y022711
X01128Y023341
X010593Y023354
X011275Y023972
X010593Y023982
X011262Y024659
X010619Y024663
X021954Y016143
X020229Y01552
X020838Y01552
X02149Y015515
X020242Y014991
X021485Y014961
X020846Y014956
X026337Y012348
X029815Y012351
X025558Y01275
X029765Y013609
X029765Y014863
X02323Y017464
X037992Y015709
X034264Y015235
X037992Y014882
X037992Y014055
X035819Y014047
X035823Y013338
X035814Y012657
T5C.0315F197S55
X038874Y01123
X039874Y01123
X039874Y01623
X038874Y01623
X038858Y017324
X039858Y017324
X039858Y022324
X038858Y022324
X038859Y023385
X039859Y023385
X038859Y028385
X039859Y028385
X038873Y029471
X039873Y029471
X039873Y034471
X038873Y034471
X039865Y035531
X038865Y035531
X039865Y040531
X038865Y040531
X042865Y040531
X041865Y040531
X040865Y040531
X041865Y035531
X040865Y035531
X042865Y035531
X042873Y034471
X041873Y034471
X040873Y034471
X041873Y029471
X040873Y029471
X042873Y029471
X042859Y028385
X041859Y028385
X040859Y028385
X041859Y023385
X040859Y023385
X042859Y023385
X042858Y022324
X041858Y022324
X040858Y022324
X042858Y017324
X041858Y017324
X040858Y017324
X042874Y01623
X041874Y01623
X040874Y01623
X041874Y01123
X040874Y01123
X042874Y01123
X043874Y01123
X044874Y01123
X044874Y01623
X043874Y01623
X043858Y017324
X044858Y017324
X043858Y022324
X044858Y022324
X044859Y023385
X043859Y023385
X044859Y028385
X043859Y028385
X043873Y029471
X044873Y029471
X043873Y034471
X044873Y034471
X044865Y035531
X043865Y035531
X044865Y040531
X043865Y040531
X045865Y040531
X045865Y035531
X045873Y034471
X045873Y029471
X045859Y028385
X045859Y023385
X045858Y022324
X045858Y017324
X045874Y01623
X045874Y01123
T6C.0374F197S55
X014891Y019197
X015678Y019197
X014891Y020181
X015678Y020181
T7C.03937F197S55
X021662Y039434
X022662Y039434
X024813Y039434
X027956Y039434
X025813Y039434
X028956Y039434
X048163Y013951
X048163Y014951
X048163Y015951
X048163Y016951
X048163Y019091
X048163Y020091
X048163Y021091
X048163Y022091
X050254Y023935
X048163Y024181
X050254Y024935
X048163Y025181
X048163Y026181
X050254Y026948
X048163Y027181
X050254Y027948
X048152Y029291
X050254Y029976
X048152Y030291
X050254Y030976
X048152Y031291
X048152Y032291
X050254Y033003
X050254Y034003
X048163Y034394
X048163Y035394
X050254Y035991
X048163Y036394
X050254Y036991
X048163Y037394
X050254Y039009
X050254Y040009
T8C.04F139S55
X018044Y02515
X019044Y02515
X020044Y02515
X020111Y029776
X018111Y029776
X019111Y029776
X018131Y034394
X019131Y034394
X020131Y034394
X025245Y03487
X024245Y03487
X026245Y03487
X027245Y03487
X025245Y03387
X026245Y03387
X024245Y03387
X027245Y03387
X024553Y023547
X028245Y03387
X032253Y033886
X035253Y033886
X034253Y033886
X033253Y033886
X028245Y03487
X034253Y034886
X033253Y034886
X032253Y034886
X035253Y034886
X036253Y034886
X036253Y033886
X036077Y010613
T9C.05906F107S55
X019044Y02735
X019111Y031976
X019131Y036594
T10C.06693F089S55
X01097Y013929
X013174Y013929
X01097Y015535
X013174Y015535
X012832Y026132
X012832Y028132
X012832Y03013
X012832Y03213
X012832Y034134
X012832Y036134
T11C.08661F074S55
X013824Y017327
X013824Y022051
M30
